<?xml version="1.0" encoding="UTF-8"?><svg id="Layer_2" xmlns="http://www.w3.org/2000/svg" viewBox="0 0 144 144"><defs><style>.cls-1{fill:#fff;}.cls-1,.cls-2{stroke-width:0px;}.cls-2{fill:#e9463a;}</style></defs><g id="Layer_1-2"><rect class="cls-2" width="144" height="144"/><rect class="cls-2" x="17.69" y="17.69" width="108.62" height="108.62"/><path class="cls-1" d="m50.75,89.88c-.2.07-.42.14-.65.19-.23.06-.48.1-.73.14-.25.04-.5.06-.73.06-.57,0-1.09-.08-1.56-.25-.47-.17-.87-.43-1.2-.78-.33-.35-.59-.79-.78-1.34-.18-.54-.27-1.18-.27-1.91,0-.64.09-1.22.28-1.74.19-.52.46-.96.81-1.34.35-.37.77-.66,1.27-.86.5-.2,1.05-.3,1.67-.3.33,0,.68.05,1.07.14.39.1.75.23,1.07.39l-.59,1.25c-.35-.13-.65-.23-.89-.29-.25-.06-.48-.09-.7-.09-.23,0-.48.04-.74.13-.26.08-.5.23-.72.44-.22.21-.4.49-.54.84-.14.35-.21.8-.21,1.33,0,.58.05,1.07.16,1.46.11.39.25.7.44.93.18.23.4.39.65.49.25.1.52.15.81.15.19,0,.35,0,.49-.02.14-.01.28-.03.41-.05v-2.75h1.7v3.56c-.14.07-.31.14-.51.2"/><path class="cls-1" d="m60.39,83.63c-.18-.22-.46-.33-.86-.33h-.63v2.12h.63c.35,0,.63-.08.83-.25.2-.17.29-.42.29-.76,0-.3-.09-.56-.27-.78m-.8,3.11h-.69v3.33h-1.74v-8.09h2.37c.48,0,.9.06,1.26.19.36.13.66.3.91.51.24.21.42.46.55.75.12.29.18.59.18.9,0,.26-.04.5-.13.72-.08.21-.19.41-.32.57-.13.17-.27.32-.42.44-.15.12-.3.22-.44.31l1.88,3.61-1.95.22-1.46-3.45Z"/><path class="cls-1" d="m73.19,85.26c-.03-.35-.11-.68-.23-.99-.12-.31-.3-.57-.54-.78-.24-.21-.57-.32-.98-.32-.37,0-.66.09-.87.27-.21.18-.38.4-.49.66-.11.26-.19.54-.22.84-.03.3-.05.58-.05.83,0,.28.02.6.05.96.03.36.11.7.23,1.01.12.31.3.58.54.8.23.21.56.32.97.32.37,0,.66-.09.88-.27.22-.18.39-.41.5-.67.11-.27.19-.56.22-.86.03-.31.05-.59.05-.84,0-.28-.02-.6-.05-.95m1.61,2.46c-.18.52-.42.97-.74,1.35-.31.38-.69.67-1.12.88-.43.21-.9.31-1.42.31-.62,0-1.15-.12-1.59-.36-.44-.24-.8-.55-1.1-.95-.29-.39-.5-.85-.64-1.36-.14-.51-.2-1.04-.2-1.59,0-.62.08-1.19.26-1.72.17-.53.42-.98.73-1.36.31-.38.68-.67,1.12-.89.43-.21.9-.32,1.42-.32.62,0,1.15.12,1.6.36.44.24.81.56,1.1.96.29.4.5.86.64,1.37.14.52.21,1.06.21,1.61,0,.62-.09,1.19-.27,1.71"/><path class="cls-1" d="m86.97,88.61c-.18.36-.42.65-.72.89-.3.24-.63.42-1.01.55-.38.13-.77.19-1.16.19-.46,0-.88-.07-1.27-.2-.39-.14-.72-.33-1-.58-.28-.25-.5-.55-.66-.9-.16-.35-.24-.75-.24-1.19v-5.39h1.74v5.44c0,.37.13.7.38.99.25.29.61.43,1.05.43s.79-.14,1.04-.41c.25-.27.38-.62.38-1.04v-5.41h1.74v5.39c0,.47-.09.88-.27,1.24"/><path class="cls-1" d="m97.01,83.61c-.19-.19-.5-.29-.92-.29h-.56v2.49h.42c.46,0,.8-.12,1.02-.35.22-.23.33-.56.33-.97s-.1-.69-.29-.88m1.88,1.92c-.15.34-.36.62-.63.86-.27.24-.6.42-.98.55-.38.13-.8.2-1.26.2h-.49v2.92h-1.74v-8.09h2.3c.93,0,1.66.21,2.21.63.54.42.81,1.01.81,1.79,0,.42-.08.8-.22,1.14"/><path class="cls-1" d="m98.94,53.9h-10.68c-.14,0-.25.11-.25.24v18c0,.14.11.25.25.25h3.49c.14,0,.24-.11.24-.25v-7.46h5.76c.14,0,.25-.11.25-.25v-2.72c0-.14-.11-.25-.25-.25h-5.76v-4.37h6.95c.14,0,.25-.11.25-.25v-2.72c0-.14-.11-.24-.25-.24"/><path class="cls-1" d="m80.85,53.9h-3.99c-.11,0-.2.07-.23.17l-4.08,12.77-4.09-12.77c-.03-.1-.13-.17-.23-.17h-4.09c-.13,0-.23.1-.25.23l-1.38,18c0,.07.02.14.06.19.05.05.11.08.18.08h3.4c.13,0,.24-.1.25-.23l.62-11.29,3.6,11.35c.03.1.13.17.23.17h3.05c.11,0,.2-.07.23-.17l3.67-11.32.56,11.26c0,.13.11.23.25.23h3.49c.07,0,.13-.03.18-.08.05-.05.07-.12.07-.18l-1.25-18c0-.13-.11-.23-.24-.23"/><path class="cls-1" d="m59.49,53.9h-14.44c-.14,0-.24.11-.24.24v2.82c0,.14.11.25.24.25h5.18v14.94c0,.14.11.25.25.25h3.49c.14,0,.24-.11.24-.25v-14.94h5.28c.14,0,.25-.11.25-.25v-2.82c0-.14-.11-.24-.25-.24"/></g></svg>